# xmcd
#
# Track frame offsets:
#  150
#  25971
#  44921
#  70245
#  90517
#  107103
#  122902
#  146570
#
# Disc length: 2245 seconds
#
# Revision: 0
# Processed by: cddbd v1.5.1PL0 Copyright (c) Steve Scherf et al.
# Submitted via: Collectorz.com Music Collector 6.9
#
DISCID=7408c308
DTITLE=robert earl keen - Live From Austin Tx (Dvd Rip) - Disc 2
DYEAR=2004
DGENRE=
TTITLE0=Snowin' On Raton
TTITLE1=Not A Drop Of Rain
TTITLE2=Wild Wind
TTITLE3=Goin' Nowhere Blues
TTITLE4=Down That Dusty Trail
TTITLE5=Feelin' Good Again
TTITLE6=Walkin' Cane
TTITLE7=Travelin' Light
EXTD=
EXTT0=
EXTT1=
EXTT2=
EXTT3=
EXTT4=
EXTT5=
EXTT6=
EXTT7=
PLAYORDER=
